<?xml version="1.0" encoding="UTF-8" standalone="no"?>
<!-- Created with Inkscape (http://www.inkscape.org/) -->

<svg
   version="1.1"
   id="svg2"
   width="53.333332"
   height="66.666664"
   viewBox="0 0 53.333332 66.666664"
   sodipodi:docname="4photoshop-ir-icon-policeman.eps"
   xmlns:inkscape="http://www.inkscape.org/namespaces/inkscape"
   xmlns:sodipodi="http://sodipodi.sourceforge.net/DTD/sodipodi-0.dtd"
   xmlns="http://www.w3.org/2000/svg"
   xmlns:svg="http://www.w3.org/2000/svg">
  <defs
     id="defs6">
    <clipPath
       clipPathUnits="userSpaceOnUse"
       id="clipPath18">
      <path
         d="m 0,6.37891 h 400 v 490 H 0 Z"
         id="path16" />
    </clipPath>
  </defs>
  <sodipodi:namedview
     id="namedview4"
     pagecolor="#ffffff"
     bordercolor="#000000"
     borderopacity="0.25"
     inkscape:showpageshadow="2"
     inkscape:pageopacity="0.0"
     inkscape:pagecheckerboard="0"
     inkscape:deskcolor="#d1d1d1" />
  <g
     id="g8"
     inkscape:groupmode="layer"
     inkscape:label="ink_ext_XXXXXX"
     transform="matrix(1.3333333,0,0,-1.3333333,0,66.666667)">
    <g
       id="g10"
       transform="scale(0.1)">
      <g
         id="g12">
        <g
           id="g14"
           clip-path="url(#clipPath18)">
          <path
             d="m 194.73,209.121 c 58.711,0 106.29,47.578 106.29,106.289 0,8.551 -1.098,16.828 -3.008,24.84 -0.821,0.512 -1.602,1.059 -2.461,1.602 -16.762,-39.223 -73.012,-43.633 -96.961,-43.633 -4.211,0 -7.219,0.121 -8.391,0.203 -1.179,-0.043 -4.148,-0.203 -8.398,-0.203 -21.879,0 -70.821,3.672 -91.8791,34.301 -0.9024,-5.59 -1.4805,-11.25 -1.4805,-17.11 0,-58.711 47.5786,-106.289 106.2886,-106.289 z"
             style="fill:#9AA6B2;fill-opacity:1;fill-rule:nonzero;stroke:none"
             id="path20" />
          <path
             d="m 186.91,13.4219 -29.68,59.4492 -1.839,3.6289 2.539,3.1992 22.07,27.8208 -21.602,21.601 -4.488,4.527 23.629,23.633 -48.75,33.559 c 0,0 5.352,3.59 -65.039,-24.031 C -6.60156,139.199 -0.351563,75.0195 0.550781,71.4609 1.41016,67.9102 0,10.0195 0,10.0195 Z"
             style="fill:#9AA6B2;fill-opacity:1;fill-rule:nonzero;stroke:none"
             id="path22" />
          <path
             d="m 330.512,166.77 c -70.391,27.621 -65.043,24.07 -65.043,24.07 l -51.559,-35.551 17.11,-17.148 4.531,-4.532 L 209.449,107.52 231.52,79.6992 234.059,76.5 232.23,72.8711 202.578,13.4883 394.262,10.0195 c 0,0 -1.41,57.8907 -0.512,61.4414 0.898,3.5586 7.109,67.6991 -63.238,95.3091 z m 8.59,-99.7583 h -69.3008 v 8.00781 h 69.3008 z"
             style="fill:#9AA6B2;fill-opacity:1;fill-rule:nonzero;stroke:none"
             id="path24" />
          <path
             d="m 188.551,107.988 -25.621,-32.2692 31.05,-62.1485 0.75,-1.5195 4.801,9.6875 26.989,53.9805 -25.622,32.2692 25.622,25.621 -17.969,18.012 -13.821,13.789 -31.8,-31.801 z"
             style="fill:#9AA6B2;fill-opacity:1;fill-rule:nonzero;stroke:none"
             id="path26" />
          <path
             d="m 291.41,456.27 c -17.82,1.789 -48.64,3 -71.609,23.242 -16.871,14.918 -24.961,16.867 -28.039,16.867 -1.102,0 -1.563,-0.27 -1.563,-0.27 0,0 -0.199,0.27 -0.937,0.27 -2.071,0 -8.211,-1.949 -25.121,-16.867 C 141.172,459.27 113.91,458.059 96.0898,456.27 78.2383,454.43 78.8711,447.199 74.3789,426.969 c -4.5,-20.27 -20.8984,-25.699 -16.0586,-30.547 3.1992,-3.121 16.0899,-14.652 24.6914,-22.262 9.2578,6.602 21.3983,11.828 35.8593,15.66 21.207,5.629 47.109,8.36 75.43,8.36 28.859,0 55.187,-2.852 76.597,-8.711 12.032,-3.278 22.5,-7.5 30.942,-12.731 9.488,7.422 21.441,16.871 24.25,19.684 4.89,4.848 -9.488,10.277 -13.981,30.508 -4.488,20.269 -2.89,27.5 -20.699,29.34 z"
             style="fill:#9AA6B2;fill-opacity:1;fill-rule:nonzero;stroke:none"
             id="path28" />
          <path
             d="m 289.449,363.449 v 3.68 c 0,0 2.821,2.18 6.84,5.269 -5,2.973 -10.738,5.43 -17.187,7.5 -22.153,7.071 -52.192,9.34 -84.801,9.34 -32.071,0 -61.68,-2.226 -83.711,-9.027 -8.828,-2.731 -16.4494,-6.172 -22.5002,-10.539 1.75,-1.57 2.8516,-2.5 2.8516,-2.5 V 351.77 c 1.5977,0.902 3.2774,1.8 4.957,2.66 23.8316,12.07 58.7496,19.769 98.4416,19.769 37.89,0 71.441,-7 95.148,-18.168 v 7.418 z"
             style="fill:#9AA6B2;fill-opacity:1;fill-rule:nonzero;stroke:none"
             id="path30" />
          <path
             d="m 93.4805,342.09 c 16.6795,-32.5 67.9995,-35.899 88.3205,-35.899 5.23,0 8.398,0.231 8.398,0.231 0,0 3.16,-0.231 8.391,-0.231 21.058,0 75.281,3.668 89.93,39.528 -22.579,11.41 -56.719,19.531 -94.219,19.531 -41.332,0 -78.68,-9.879 -100.8205,-23.16 z"
             style="fill:#9AA6B2;fill-opacity:1;fill-rule:nonzero;stroke:none"
             id="path32" />
        </g>
      </g>
    </g>
  </g>
</svg>
